<?xml version="1.0" encoding="utf-8"?>
<!-- Generator: Adobe Illustrator 19.0.0, SVG Export Plug-In . SVG Version: 6.00 Build 0)  -->
<svg version="1.1" id="Layer_1" xmlns="http://www.w3.org/2000/svg" xmlns:xlink="http://www.w3.org/1999/xlink" x="0px" y="0px"
	 width="960px" height="120.2px" viewBox="0 220.8 960 120.2" style="enable-background:new 0 220.8 960 120.2;"
	 xml:space="preserve">
<style type="text/css">
	.st0{fill:#676767;}
	.st1{fill:#079247;}
</style>
<g id="XMLID_2181_">
	<g id="XMLID_2185_">
		<path id="XMLID_2_" class="st0" d="M269,331.8h-8.5l-12.6-36.6c-1.8,0.3-3.8,0.4-5.9,0.4h-29.2v36.1h-8.3V228.6h36.5
			c9.4,0,16.4,2.9,21,8.6c4.6,5.7,6.9,13.4,6.9,23c0,4.6-0.2,8.5-0.5,11.8c-0.3,3.2-1.6,7-3.6,11.3c-2.1,4.3-5,7.4-8.9,9.5
			L269,331.8z M212.7,287.6h29.4c3.6,0,6.6-0.7,9.1-2.1c2.5-1.4,4.3-3,5.5-4.8c1.2-1.8,2.1-4.2,2.7-7.2c0.8-3.4,1.2-7.9,1.2-13.3
			c0-8-1.7-13.9-5.1-17.8c-3.4-3.9-8-5.9-13.9-5.9h-28.8V287.6z"/>
		<path id="XMLID_5_" class="st0" d="M306.5,326.3c6.8,0,14-2,21.7-6l3.3,6.3c-7.6,4.6-15.6,6.9-23.9,6.9
			c-17.2,0-25.8-7.2-25.8-21.5v-30.2c0-8,2.5-14.2,7.5-18.6c5-4.4,11.6-6.6,19.8-6.6c8.2,0,14.6,2.2,19.2,6.6
			c4.6,4.4,6.9,10.4,6.9,18.2v19.2l-45.1,2.5v9c0,5.3,1.9,9.1,5.8,11.5C298.8,325.4,302.4,326.3,306.5,326.3z M326.9,293.2v-12.8
			c0-4.2-1.1-7.7-3.4-10.4c-2.3-2.7-4.7-4.4-7.1-5.2c-2.5-0.7-5-1.1-7.4-1.1c-5.4,0-9.9,1.5-13.5,4.4c-3.6,2.9-5.3,7.6-5.3,13.9v13
			L326.9,293.2z"/>
		<path id="XMLID_8_" class="st0" d="M346.3,313.1h7.9c0.6,4.4,2.8,7.7,6.7,10c3.9,2.2,8.1,3.3,12.7,3.3s8.7-1,12.4-3
			c3.7-2,5.5-5.1,5.5-9.1c0-4.1-1.4-7.2-4.2-9.5c-2.8-2.3-6.3-4-10.3-5.3c-4.1-1.3-8.2-2.6-12.3-4.1c-4.2-1.4-7.8-3.6-11-6.4
			c-3.8-3.3-5.6-7.5-5.6-12.5c0-5,2-9.6,6-13.9c4-4.3,10.5-6.4,19.5-6.4c3.2,0,6.1,0.4,8.9,1.1c2.8,0.7,4.7,1.5,5.9,2.1l1.8,1
			l-2.8,6.8c-3.6-2.6-8-3.8-13.4-3.8s-9.6,1.1-12.8,3.4c-3.2,2.3-4.8,5.3-4.8,9.1c0,3.7,1.6,6.7,4.9,8.8c3.3,2.1,7,3.8,11.2,5
			c4.2,1.2,8.4,2.6,12.5,4.2c4.2,1.6,7.7,4,10.5,7.2c2.9,3.2,4.3,7.6,4.3,13s-2.2,10.1-6.6,14c-4.4,3.9-10.8,5.9-19.3,5.9
			c-8.5,0-15.1-2-20-6C349,323.9,346.5,319,346.3,313.1z"/>
		<path id="XMLID_10_" class="st0" d="M434.9,326.3c6.8,0,14-2,21.7-6l3.3,6.3c-7.6,4.6-15.6,6.9-23.9,6.9
			c-17.2,0-25.8-7.2-25.8-21.5v-30.2c0-8,2.5-14.2,7.5-18.6c5-4.4,11.6-6.6,19.8-6.6c8.2,0,14.6,2.2,19.2,6.6
			c4.6,4.4,6.9,10.4,6.9,18.2v19.2l-45.1,2.5v9c0,5.3,1.9,9.1,5.8,11.5C427.2,325.4,430.8,326.3,434.9,326.3z M455.2,293.2v-12.8
			c0-4.2-1.1-7.7-3.4-10.4c-2.3-2.7-4.7-4.4-7.1-5.2c-2.5-0.7-5-1.1-7.4-1.1c-5.4,0-9.9,1.5-13.5,4.4c-3.6,2.9-5.3,7.6-5.3,13.9v13
			L455.2,293.2z"/>
		<path id="XMLID_13_" class="st0" d="M507.3,333.3c-21.7,0-32.5-8.8-32.5-26.4v-12.2c0-9.7,3.4-16.3,10.2-19.6
			c3.6-1.7,7.1-2.5,10.5-2.5c11.7,0,21,2.8,28,8.3c0-5.4-1.6-9.7-4.7-12.9c-3.2-3.2-9.3-4.8-18.3-4.8l0.4-6.3c8,0,14,0.9,17.8,2.8
			c2.1,1.1,3.9,2.2,5.5,3.2c1.6,1.1,2.8,2.5,3.7,4.3c0.9,1.8,1.6,3.3,2.2,4.6s1,3.1,1.2,5.4c0.3,3.4,0.4,7,0.4,10.8v43.9
			C521.7,332.8,513.5,333.3,507.3,333.3z M523.7,325v-37.9c-8.2-3.9-16.6-6.2-25.2-6.9c-0.6-0.1-1.2-0.1-1.8-0.1
			c-3.8,0-7,1.2-9.6,3.5c-2.7,2.3-4,6.2-4,11.6v12.8c0,8.2,3.6,13.5,10.7,15.9c4.2,1.5,8.9,2.2,14.1,2.2
			C513,326.1,518.3,325.7,523.7,325z"/>
		<path id="XMLID_16_" class="st0" d="M581.2,265.5c-3.8-1-7.6-1.5-11.4-1.5c-3.9,0-7.3,0.9-10.5,2.6c-3.1,1.7-4.7,4.2-4.7,7.4v57.8
			h-8.3v-73.9h8.3l-0.4,5.2c4.7-4.2,10.8-6.3,18.4-6.3c3.4,0,7,0.4,10.8,1.2L581.2,265.5z"/>
		<path id="XMLID_18_" class="st0" d="M615.5,326.2c4.5,0,9.4-0.6,14.8-1.9l1.8,6.6c-6.3,1.7-12.1,2.5-17.2,2.5
			c-5.1,0-10.2-0.8-15.1-2.4c-10.3-3.3-15.4-11.9-15.4-25.8v-18.9c0-7,1.4-12.8,4.2-17.5c4.7-8.2,12.6-12.2,23.4-12.2
			c6.5,0,13.2,1.6,19.9,4.7l-2.4,6c-5.6-2.2-10.5-3.2-14.6-3.2s-7.7,0.5-10.9,1.5c-3.2,1-5.8,3.2-8,6.6c-2.2,3.4-3.3,7.9-3.3,13.3
			v21.4C592.7,319.8,600.3,326.2,615.5,326.2z"/>
		<path id="XMLID_20_" class="st0" d="M648.6,261.9c4.9-3.5,11.6-5.3,20-5.3c5.3,0,9.9,0.9,13.8,2.8c8.4,3.8,12.6,11,12.6,21.4v51
			h-8.2v-50.6c0-5.1-1.4-9.1-4.2-11.9c-3.4-3.4-8.4-5.2-15.1-5.2s-13,1.7-19.1,5v62.7h-8.3V228.6h8.3V261.9z"/>
		<path id="XMLID_22_" class="st1" d="M728.2,259.6c4.8-2,9.9-2.9,15.3-2.9s9.8,1,13.5,2.9v-31h13.4v103.2
			c-8.5,1.2-16.4,1.8-23.6,1.8c-7.2,0-13.8-1.5-19.6-4.4c-7.7-3.9-11.6-10.8-11.6-20.5v-27.9C715.5,270.5,719.8,263.4,728.2,259.6z
			 M757,273.3c-4.4-2.3-8.6-3.4-12.7-3.4c-4.1,0-7.7,1.1-10.8,3.4c-3.1,2.3-4.6,6.1-4.6,11.5v24.6c0,5,2.8,8.5,8.3,10.3
			c3,1,6.1,1.5,9.4,1.5c3.3,0,6.7-0.4,10.3-1.2V273.3z"/>
		<path id="XMLID_25_" class="st1" d="M802.7,272.7c8.6,0,16,2,22.3,5.9c0-8.3-6.1-12.4-18.4-12.4l1-9.4c8,0,14,0.9,17.8,2.8
			c2.1,1.1,3.9,2.2,5.5,3.2c1.6,1.1,2.8,2.5,3.7,4.3c0.9,1.8,1.6,3.3,2.2,4.6c0.6,1.3,1,3.1,1.2,5.4c0.3,3.4,0.4,7,0.4,10.8v43.9
			c-10.3,1-18.5,1.5-24.6,1.5c-21.7,0-32.5-8.8-32.5-26.4v-12.2c0-9.7,3.4-16.3,10.2-19.6C794.9,273.5,798.6,272.7,802.7,272.7z
			 M824.9,320.2V292c-5.2-3-11.2-5-18-5.7c-0.7-0.1-1.9-0.1-3.5-0.1c-1.6,0-3.5,0.7-5.6,2.1s-3.1,4.1-3.1,7.9v9.7
			c0,10.1,6.4,15.2,19.3,15.2C817.4,321,821,320.7,824.9,320.2z"/>
		<path id="XMLID_28_" class="st1" d="M875.1,323.1l-4,10.6c-13.5-1.2-20.2-8.3-20.2-21.4v-83.7h13.7v29.3H880l-3.6,12.7h-11.9v41.7
			C864.5,318.5,868.1,322.1,875.1,323.1z"/>
		<path id="XMLID_30_" class="st1" d="M913.8,321.2c5.5,0,12-2,19.4-5.9l5,11.4c-7.6,4.6-15.6,6.9-23.9,6.9
			c-17.2,0-25.8-7.2-25.8-21.5v-30.2c0-8,2.5-14.2,7.5-18.6c5-4.4,11.6-6.6,19.8-6.6c8.2,0,14.6,2.2,19.2,6.6
			c4.6,4.4,6.9,10.4,6.9,18.2v21.2l-39.8,2.2v5.7c0,3.9,1.2,6.7,3.5,8.3C908.1,320.4,910.8,321.2,913.8,321.2z M928.4,290.8v-9.6
			c0-4-1.3-7-3.9-8.9c-2.6-1.9-5.8-2.9-9.6-2.9c-3.8,0-6.9,1.2-9.2,3.5c-2.3,2.3-3.5,5.3-3.5,9.1v10.3L928.4,290.8z"/>
	</g>
	<g id="XMLID_2182_">
		<g id="XMLID_2184_">
			<path id="XMLID_33_" class="st1" d="M93.3,231.5C51,231.5,16.7,265,16.7,307h0h10.4h0c0-37,29.7-66.8,66.2-66.8
				s66.2,29.7,66.2,66c0,0.2,0,0.8,0,0.8h10.4h0C169.9,265,135.6,231.5,93.3,231.5z"/>
		</g>
		<g id="XMLID_2183_">
			<polygon id="XMLID_1_" class="st1" points="90.4,309.8 81.9,305.6 54.3,292.2 66.3,305.6 88.5,330.7 110.3,305.6 145.7,265 
				95.5,305.6 			"/>
		</g>
	</g>
</g>
</svg>
